<svg width="100" height="100" xmlns="http://www.w3.org/2000/svg">
    <g fill="none" fill-rule="evenodd">
        <title>Layer 1</title>
        <path
            d="m94.35421,1.13241c-42.94131,0 -78.25913,32.17259 -82.00263,73.06064c7.13559,-9.79873 15.87429,-19.22862 26.78532,-30.06995a2.14329,2.14329 0 0 1 2.98841,-0.02904c0.8306,0.79284 0.84221,2.09682 0.02904,2.90709a493.14841,493.14841 0 0 0 -7.80646,7.93424l-0.50823,0.53437c-13.48414,14.06207 -23.12314,26.30322 -30.12223,41.50374a2.03874,2.03874 0 0 0 1.06003,2.72122a2.1491,2.1491 0 0 0 2.79673,-1.03389a112.05806,112.05806 0 0 1 8.63705,-15.31378c29.50364,-0.73476 56.35866,-16.71941 70.43235,-42.15428a2.02131,2.02131 0 0 0 -0.04647,-2.03293a2.14039,2.14039 0 0 0 -1.81512,-0.99904l-7.82388,0l14.02722,-7.80936a2.07359,2.07359 0 0 0 0.95257,-1.11521a78.06455,78.06455 0 0 0 4.52763,-26.04765a2.08521,2.08521 0 0 0 -2.11134,-2.05616z" fill="#47D5FE"/>
        />
    </g>
</svg>
